<?xml version="1.0" standalone="no"?>
<!DOCTYPE svg PUBLIC "-//W3C//DTD SVG 1.0//EN" "http://www.w3.org/TR/2001/REC-SVG-20010904/DTD/svg10.dtd">
<svg xmlns="http://www.w3.org/2000/svg" xmlns:xlink="http://www.w3.org/1999/xlink" id="body_1" width="19" height="19">

<g transform="matrix(1.1875 0 0 1.1875 0 0)">
    <path d="M12.5 16C 13.750429 16 14.905874 15.332904 15.531089 14.25C 16.156303 13.167096 16.156303 11.832903 15.531089 10.75C 14.905874 9.667095 13.750429 9 12.5 9C 10.567003 9 9 10.567003 9 12.5C 9 14.432997 10.567003 16 12.5 16zM14.179 11.507L12.844 13.733C 12.725122 13.93117 12.521527 14.063473 12.292154 14.091607C 12.062782 14.119741 11.833247 14.0405655 11.67 13.877L11.67 13.877L10.896 13.104C 10.700491 12.908491 10.700491 12.591509 10.896 12.396C 11.091509 12.200491 11.408491 12.200491 11.604 12.396L11.604 12.396L12.151 12.944L13.321 10.993C 13.412817 10.839733 13.579427 10.747092 13.758069 10.749975C 13.93671 10.752858 14.1002445 10.850825 14.187069 11.006975C 14.273893 11.163125 14.270817 11.353733 14.179 11.507zM11 5C 11 6.071797 10.428204 7.0621777 9.5 7.5980763C 8.571796 8.133974 7.428203 8.133974 6.4999995 7.598076C 5.5717964 7.0621777 5 6.071797 5 5C 5 3.3431456 6.343146 2 8 2C 9.656855 2 11 3.3431456 11 5z" stroke="none" fill="#FFFFFF" fill-rule="nonzero" />
    <path d="M2 13C 2 14 3 14 3 14L3 14L8.2560005 14C 8.086002 13.518192 7.9994273 13.01092 8 12.5C 7.9986644 11.198695 8.561965 9.960819 9.544 9.107C 9.077 9.038 8.564 9 8 9C 3 9 2 12 2 13z" stroke="none" fill="#FFFFFF" fill-rule="nonzero" />
</g>
</svg>